<?xml version="1.0" encoding="UTF-8" standalone="no"?>
<svg width="24px" height="24px" viewBox="0 0 24 24" version="1.1" xmlns="http://www.w3.org/2000/svg" xmlns:xlink="http://www.w3.org/1999/xlink">
    <!-- Generator: Sketch 47.1 (45422) - http://www.bohemiancoding.com/sketch -->
    <title>linkedin</title>
    <desc>Created with Sketch.</desc>
    <defs></defs>
    <g id="Welcome" stroke="none" stroke-width="1" fill="none" fill-rule="evenodd">
        <g id="Desktop" transform="translate(-244.000000, -446.000000)" fill-rule="nonzero" fill="#000000">
            <g id="linkedin" transform="translate(244.000000, 446.000000)">
                <path d="M23.2626667,23.2693333 L18.524,23.2693333 L18.524,15.844 C18.524,14.0733333 18.488,11.7946667 16.0546667,11.7946667 C13.584,11.7946667 13.2066667,13.7213333 13.2066667,15.7133333 L13.2066667,23.2693333 L8.468,23.2693333 L8.468,8 L13.02,8 L13.02,10.0813333 L13.0813333,10.0813333 C13.7173333,8.88133333 15.264,7.61466667 17.5746667,7.61466667 C22.376,7.61466667 23.264,10.7746667 23.264,14.888 L23.264,23.2693333 L23.2626667,23.2693333 Z M3.116,5.91066667 C1.59066667,5.91066667 0.365333333,4.676 0.365333333,3.15733333 C0.365333333,1.64 1.592,0.406666667 3.116,0.406666667 C4.636,0.406666667 5.868,1.64 5.868,3.15733333 C5.868,4.676 4.63466667,5.91066667 3.116,5.91066667 Z M5.492,23.2693333 L0.74,23.2693333 L0.74,8 L5.492,8 L5.492,23.2693333 Z" id="Shape"></path>
            </g>
        </g>
    </g>
</svg>